<?xml version="1.0" standalone="no"?>
<!DOCTYPE svg PUBLIC "-//W3C//DTD SVG 20010904//EN"
 "http://www.w3.org/TR/2001/REC-SVG-20010904/DTD/svg10.dtd">
<svg version="1.0" xmlns="http://www.w3.org/2000/svg"
 width="512.000000pt" height="512.000000pt" viewBox="0 0 512.000000 512.000000"
 preserveAspectRatio="xMidYMid meet">
<metadata>
Created by potrace 1.11, written by Peter Selinger 2001-2013
</metadata>
<g transform="translate(0.000000,512.000000) scale(0.100000,-0.100000)"
fill="#000000" stroke="none">
<path d="M3767 4944 c-176 -27 -363 -111 -507 -229 -57 -47 -137 -130 -161
-167 -4 -6 -458 -10 -1155 -11 l-1149 -2 -57 -28 c-85 -42 -154 -127 -174
-217 -2 -8 -4 -801 -4 -1762 l-1 -1747 26 -56 c34 -70 94 -130 164 -161 l54
-24 1751 -2 c1712 -3 1752 -3 1803 16 72 27 142 91 178 162 l30 59 0 1141 1
1140 95 95 c98 96 152 168 207 274 205 396 137 878 -170 1201 -40 42 -98 96
-128 119 -114 87 -274 159 -424 191 -95 21 -271 24 -379 8z"/>
</g>
</svg>
